<svg width="282" height="282" viewBox="0 0 282 282" fill="none" xmlns="http://www.w3.org/2000/svg">
<rect width="280" height="280" transform="translate(1 1)" fill="white"/>
<rect width="280" height="40" transform="translate(1 1)" fill="white"/>
<path d="M1 5C1 2.79086 2.79086 1 5 1H277C279.209 1 281 2.79086 281 5V41H1V5Z" fill="#CFFCFF" stroke="#828282"/>
<path d="M13.3516 25H15.5888L16.9013 20.1974H16.9957L18.3082 25H20.5504L22.6236 17.3636H20.4858L19.3224 22.4645H19.2578L18.005 17.3636H15.902L14.669 22.4943H14.5994L13.4162 17.3636H11.2734L13.3516 25ZM27.0123 25.1491C29.329 25.1491 30.7708 23.5632 30.7708 21.2116C30.7708 18.8452 29.329 17.2642 27.0123 17.2642C24.6955 17.2642 23.2537 18.8452 23.2537 21.2116C23.2537 23.5632 24.6955 25.1491 27.0123 25.1491ZM27.0222 23.5085C25.9533 23.5085 25.4064 22.5291 25.4064 21.1967C25.4064 19.8643 25.9533 18.88 27.0222 18.88C28.0712 18.88 28.6181 19.8643 28.6181 21.1967C28.6181 22.5291 28.0712 23.5085 27.0222 23.5085ZM32.1479 25H34.2658V20.6797C34.2658 19.7401 34.9519 19.0938 35.8865 19.0938C36.1799 19.0938 36.5826 19.1435 36.7814 19.2081V17.3288C36.5925 17.2841 36.329 17.2543 36.1152 17.2543C35.2601 17.2543 34.5591 17.7514 34.2807 18.696H34.2012V17.3636H32.1479V25ZM37.8764 25H39.9943V22.5739L40.5661 21.9226L42.6491 25H45.13L42.152 20.6697L44.9858 17.3636H42.5547L40.1087 20.2621H39.9943V14.8182H37.8764V25ZM49.1905 25.1491C51.0797 25.1491 52.3525 24.2294 52.6507 22.8125L50.6919 22.6832C50.4782 23.2649 49.9313 23.5682 49.2253 23.5682C48.1664 23.5682 47.4952 22.8672 47.4952 21.7287V21.7237H52.6955V21.142C52.6955 18.5469 51.1245 17.2642 49.106 17.2642C46.8588 17.2642 45.4022 18.8601 45.4022 21.2166C45.4022 23.6378 46.839 25.1491 49.1905 25.1491ZM47.4952 20.4112C47.54 19.5412 48.2012 18.8452 49.1408 18.8452C50.0605 18.8452 50.6969 19.5014 50.7019 20.4112H47.4952ZM54.0776 25H56.1955V20.6797C56.1955 19.7401 56.8816 19.0938 57.8162 19.0938C58.1096 19.0938 58.5123 19.1435 58.7111 19.2081V17.3288C58.5222 17.2841 58.2587 17.2543 58.0449 17.2543C57.1898 17.2543 56.4888 17.7514 56.2104 18.696H56.1309V17.3636H54.0776V25ZM66.1598 19.5412C65.9709 18.1342 64.8374 17.2642 62.9084 17.2642C60.9545 17.2642 59.6669 18.169 59.6719 19.6406C59.6669 20.7841 60.3878 21.5249 61.8793 21.8232L63.2017 22.0866C63.8679 22.2209 64.1712 22.4645 64.1811 22.8473C64.1712 23.2997 63.679 23.6229 62.9382 23.6229C62.1825 23.6229 61.6804 23.2997 61.5511 22.6783L59.468 22.7876C59.6669 24.2493 60.9098 25.1491 62.9332 25.1491C64.9119 25.1491 66.3288 24.1399 66.3338 22.6335C66.3288 21.5298 65.608 20.8686 64.1264 20.5653L62.7443 20.2869C62.0334 20.1328 61.7699 19.8892 61.7749 19.5213C61.7699 19.0639 62.2869 18.7656 62.9432 18.7656C63.679 18.7656 64.1165 19.1683 64.2209 19.6605L66.1598 19.5412Z" fill="black"/>
<rect width="280" height="40" transform="translate(1 41)" fill="white"/>
<rect x="1" y="41" width="280" height="40" fill="white" stroke="#828282"/>
<path d="M12.0739 65H13.2472V57.3636H12.0739V65ZM12.6705 56.0909C13.1278 56.0909 13.5057 55.733 13.5057 55.2955C13.5057 54.858 13.1278 54.5 12.6705 54.5C12.2131 54.5 11.8352 54.858 11.8352 55.2955C11.8352 55.733 12.2131 56.0909 12.6705 56.0909ZM18.2797 65.1591C19.7512 65.1591 20.2484 64.2443 20.5069 63.8267H20.6461V65H21.7797V54.8182H20.6064V58.5767H20.5069C20.2484 58.179 19.791 57.2642 18.2995 57.2642C16.3706 57.2642 15.0382 58.7955 15.0382 61.2017C15.0382 63.6278 16.3706 65.1591 18.2797 65.1591ZM18.4387 64.1051C16.9672 64.1051 16.2115 62.8125 16.2115 61.1818C16.2115 59.571 16.9473 58.3182 18.4387 58.3182C19.8706 58.3182 20.6262 59.4716 20.6262 61.1818C20.6262 62.9119 19.8507 64.1051 18.4387 64.1051Z" fill="black"/>
<rect width="280" height="40" transform="translate(1 81)" fill="white"/>
<rect x="1" y="81" width="280" height="40" fill="white" stroke="#828282"/>
<path d="M13.2472 100.406C13.2472 99.0739 14.0724 98.3182 15.196 98.3182C16.2848 98.3182 16.946 99.0291 16.946 100.227V105H18.1193V100.148C18.1193 98.1989 17.0803 97.2642 15.5341 97.2642C14.3807 97.2642 13.6648 97.7812 13.3068 98.5568H13.2074V97.3636H12.0739V105H13.2472V100.406ZM22.5105 105.179C23.8429 105.179 24.5389 104.463 24.7775 103.966H24.8372V105H26.0105V99.9688C26.0105 97.5426 24.161 97.2642 23.1866 97.2642C22.0332 97.2642 20.7207 97.6619 20.1241 99.054L21.2377 99.4517C21.4963 98.8949 22.1078 98.2983 23.2264 98.2983C24.3052 98.2983 24.8372 98.87 24.8372 99.8494V99.8892C24.8372 100.456 24.2605 100.406 22.8684 100.585C21.4515 100.769 19.9054 101.082 19.9054 102.832C19.9054 104.324 21.0588 105.179 22.5105 105.179ZM22.6895 104.125C21.7548 104.125 21.0787 103.707 21.0787 102.892C21.0787 101.997 21.894 101.719 22.8088 101.599C23.3059 101.54 24.6383 101.401 24.8372 101.162V102.236C24.8372 103.19 24.0815 104.125 22.6895 104.125ZM28.152 105H29.3253V100.227C29.3253 99.1087 30.1406 98.3182 31.0554 98.3182C31.9453 98.3182 32.5668 98.8999 32.5668 99.7699V105H33.7599V100.028C33.7599 99.044 34.3764 98.3182 35.4503 98.3182C36.2855 98.3182 37.0014 98.7607 37.0014 99.8892V105H38.1747V99.8892C38.1747 98.0945 37.2102 97.2642 35.848 97.2642C34.7543 97.2642 33.9538 97.7663 33.5611 98.5568H33.4815C33.1037 97.7415 32.4375 97.2642 31.4332 97.2642C30.4389 97.2642 29.7031 97.7415 29.3849 98.5568H29.2855V97.3636H28.152V105ZM43.5217 105.159C45.0728 105.159 46.2063 104.384 46.5643 103.23L45.4308 102.912C45.1325 103.707 44.4414 104.105 43.5217 104.105C42.1445 104.105 41.195 103.215 41.1403 101.58H46.6836V101.082C46.6836 98.2386 44.9933 97.2642 43.4023 97.2642C41.3342 97.2642 39.962 98.8949 39.962 101.241C39.962 103.588 41.3143 105.159 43.5217 105.159ZM41.1403 100.565C41.2198 99.3771 42.06 98.3182 43.4023 98.3182C44.6751 98.3182 45.4904 99.2727 45.4904 100.565H41.1403Z" fill="black"/>
<rect width="280" height="40" transform="translate(1 121)" fill="white"/>
<rect x="1" y="121" width="280" height="40" fill="white" stroke="#828282"/>
<path d="M17.483 139.074C17.1151 137.99 16.2898 137.264 14.7784 137.264C13.1676 137.264 11.9744 138.179 11.9744 139.472C11.9744 140.526 12.6009 141.232 14.0028 141.56L15.2756 141.858C16.0462 142.037 16.4091 142.405 16.4091 142.932C16.4091 143.588 15.7131 144.125 14.6193 144.125C13.6598 144.125 13.0582 143.712 12.8494 142.892L11.7358 143.17C12.0092 144.468 13.0781 145.159 14.6392 145.159C16.4141 145.159 17.6222 144.19 17.6222 142.872C17.6222 141.808 16.956 141.137 15.5938 140.804L14.4602 140.526C13.5554 140.302 13.1477 139.999 13.1477 139.412C13.1477 138.756 13.8438 138.278 14.7784 138.278C15.8026 138.278 16.2251 138.845 16.429 139.372L17.483 139.074ZM24.2008 141.878C24.2008 143.31 23.1071 143.966 22.2321 143.966C21.2576 143.966 20.5616 143.25 20.5616 142.136V137.364H19.3883V142.216C19.3883 144.165 20.4224 145.099 21.8542 145.099C23.0076 145.099 23.7633 144.483 24.1213 143.707H24.2008V145H25.3741V137.364H24.2008V141.878ZM27.5231 145H28.6964V140.168C28.6964 139.134 29.5117 138.378 30.6254 138.378C30.9386 138.378 31.2617 138.438 31.3413 138.457V137.264C31.207 137.254 30.8988 137.244 30.7248 137.244C29.81 137.244 29.0146 137.761 28.7362 138.517H28.6566V137.364H27.5231V145ZM33.9054 140.406C33.9054 139.074 34.7306 138.318 35.8542 138.318C36.943 138.318 37.6042 139.029 37.6042 140.227V145H38.7775V140.148C38.7775 138.199 37.7385 137.264 36.1923 137.264C35.0389 137.264 34.323 137.781 33.965 138.557H33.8656V137.364H32.7321V145H33.9054V140.406ZM43.1687 145.179C44.5011 145.179 45.1971 144.463 45.4357 143.966H45.4954V145H46.6687V139.969C46.6687 137.543 44.8192 137.264 43.8448 137.264C42.6914 137.264 41.3789 137.662 40.7823 139.054L41.896 139.452C42.1545 138.895 42.766 138.298 43.8846 138.298C44.9634 138.298 45.4954 138.87 45.4954 139.849V139.889C45.4954 140.456 44.9187 140.406 43.5266 140.585C42.1097 140.769 40.5636 141.082 40.5636 142.832C40.5636 144.324 41.717 145.179 43.1687 145.179ZM43.3477 144.125C42.413 144.125 41.7369 143.707 41.7369 142.892C41.7369 141.997 42.5522 141.719 43.467 141.599C43.9641 141.54 45.2965 141.401 45.4954 141.162V142.236C45.4954 143.19 44.7397 144.125 43.3477 144.125ZM48.8102 145H49.9835V140.227C49.9835 139.109 50.7988 138.318 51.7136 138.318C52.6035 138.318 53.225 138.9 53.225 139.77V145H54.4181V140.028C54.4181 139.044 55.0346 138.318 56.1085 138.318C56.9437 138.318 57.6596 138.761 57.6596 139.889V145H58.8329V139.889C58.8329 138.094 57.8684 137.264 56.5062 137.264C55.4125 137.264 54.612 137.766 54.2193 138.557H54.1397C53.7619 137.741 53.0957 137.264 52.0914 137.264C51.0971 137.264 50.3613 137.741 50.0431 138.557H49.9437V137.364H48.8102V145ZM64.1799 145.159C65.731 145.159 66.8645 144.384 67.2225 143.23L66.089 142.912C65.7907 143.707 65.0996 144.105 64.1799 144.105C62.8027 144.105 61.8532 143.215 61.7985 141.58H67.3418V141.082C67.3418 138.239 65.6515 137.264 64.0605 137.264C61.9924 137.264 60.6202 138.895 60.6202 141.241C60.6202 143.588 61.9725 145.159 64.1799 145.159ZM61.7985 140.565C61.878 139.377 62.7182 138.318 64.0605 138.318C65.3333 138.318 66.1486 139.273 66.1486 140.565H61.7985Z" fill="black"/>
<rect width="280" height="40" transform="translate(1 161)" fill="white"/>
<rect x="1" y="161" width="280" height="40" fill="white" stroke="#828282"/>
<path d="M12.0739 187.864H13.2472V183.827H13.3466C13.6051 184.244 14.1023 185.159 15.5739 185.159C17.483 185.159 18.8153 183.628 18.8153 181.202C18.8153 178.795 17.483 177.264 15.554 177.264C14.0625 177.264 13.6051 178.179 13.3466 178.577H13.2074V177.364H12.0739V187.864ZM13.2273 181.182C13.2273 179.472 13.983 178.318 15.4148 178.318C16.9062 178.318 17.642 179.571 17.642 181.182C17.642 182.812 16.8864 184.105 15.4148 184.105C14.0028 184.105 13.2273 182.912 13.2273 181.182ZM21.7784 180.406C21.7784 179.074 22.6286 178.318 23.7869 178.318C24.8906 178.318 25.5568 179.014 25.5568 180.227V185H26.7301V180.148C26.7301 178.184 25.6861 177.264 24.125 177.264C22.9219 177.264 22.2358 177.766 21.8778 178.557H21.7784V174.818H20.6051V185H21.7784V180.406ZM31.9789 185.159C34.0471 185.159 35.4391 183.588 35.4391 181.222C35.4391 178.835 34.0471 177.264 31.9789 177.264C29.9107 177.264 28.5186 178.835 28.5186 181.222C28.5186 183.588 29.9107 185.159 31.9789 185.159ZM31.9789 184.105C30.4078 184.105 29.6919 182.753 29.6919 181.222C29.6919 179.69 30.4078 178.318 31.9789 178.318C33.5499 178.318 34.2658 179.69 34.2658 181.222C34.2658 182.753 33.5499 184.105 31.9789 184.105ZM38.4034 180.406C38.4034 179.074 39.2287 178.318 40.3523 178.318C41.4411 178.318 42.1023 179.029 42.1023 180.227V185H43.2756V180.148C43.2756 178.199 42.2365 177.264 40.6903 177.264C39.5369 177.264 38.821 177.781 38.4631 178.557H38.3636V177.364H37.2301V185H38.4034V180.406ZM48.6213 185.159C50.1724 185.159 51.3059 184.384 51.6639 183.23L50.5304 182.912C50.2321 183.707 49.541 184.105 48.6213 184.105C47.2441 184.105 46.2946 183.215 46.2399 181.58H51.7832V181.082C51.7832 178.239 50.0929 177.264 48.502 177.264C46.4338 177.264 45.0616 178.895 45.0616 181.241C45.0616 183.588 46.4139 185.159 48.6213 185.159ZM46.2399 180.565C46.3194 179.377 47.1596 178.318 48.502 178.318C49.7747 178.318 50.59 179.273 50.59 180.565H46.2399Z" fill="black"/>
<rect width="280" height="40" transform="translate(1 201)" fill="white"/>
<rect x="1" y="201" width="280" height="40" fill="white" stroke="#828282"/>
<path d="M15.1761 225.159C16.8665 225.159 17.9801 224.125 18.179 222.773H17.0057C16.7869 223.608 16.0909 224.105 15.1761 224.105C13.7841 224.105 12.8892 222.952 12.8892 221.182C12.8892 219.452 13.804 218.318 15.1761 218.318C16.2102 218.318 16.8267 218.955 17.0057 219.651H18.179C17.9801 218.219 16.767 217.264 15.1562 217.264C13.0881 217.264 11.7159 218.895 11.7159 221.222C11.7159 223.509 13.0284 225.159 15.1761 225.159ZM19.8942 225H21.0675V220.168C21.0675 219.134 21.8828 218.378 22.9964 218.378C23.3097 218.378 23.6328 218.438 23.7124 218.457V217.264C23.5781 217.254 23.2699 217.244 23.0959 217.244C22.1811 217.244 21.3857 217.761 21.1072 218.517H21.0277V217.364H19.8942V225ZM28.0724 225.159C29.6236 225.159 30.7571 224.384 31.1151 223.23L29.9815 222.912C29.6832 223.707 28.9922 224.105 28.0724 224.105C26.6953 224.105 25.7457 223.215 25.6911 221.58H31.2344V221.082C31.2344 218.239 29.544 217.264 27.9531 217.264C25.8849 217.264 24.5128 218.895 24.5128 221.241C24.5128 223.588 25.8651 225.159 28.0724 225.159ZM25.6911 220.565C25.7706 219.377 26.6108 218.318 27.9531 218.318C29.2259 218.318 30.0412 219.273 30.0412 220.565H25.6911ZM35.2663 225.179C36.5987 225.179 37.2947 224.463 37.5334 223.966H37.593V225H38.7663V219.969C38.7663 217.543 36.9169 217.264 35.9425 217.264C34.7891 217.264 33.4766 217.662 32.88 219.054L33.9936 219.452C34.2521 218.895 34.8636 218.298 35.9822 218.298C37.0611 218.298 37.593 218.87 37.593 219.849V219.889C37.593 220.456 37.0163 220.406 35.6243 220.585C34.2074 220.769 32.6612 221.082 32.6612 222.832C32.6612 224.324 33.8146 225.179 35.2663 225.179ZM35.4453 224.125C34.5107 224.125 33.8345 223.707 33.8345 222.892C33.8345 221.997 34.6499 221.719 35.5646 221.599C36.0618 221.54 37.3942 221.401 37.593 221.162V222.236C37.593 223.19 36.8374 224.125 35.4453 224.125ZM44.2289 217.364H42.5982V215.534H41.4249V217.364H40.2715V218.358H41.4249V223.131C41.4249 224.463 42.4988 225.099 43.4931 225.099C43.9306 225.099 44.209 225.02 44.3681 224.96L44.1294 223.906C44.03 223.926 43.8709 223.966 43.6124 223.966C43.0953 223.966 42.5982 223.807 42.5982 222.812V218.358H44.2289V217.364ZM49.1135 225.159C50.6646 225.159 51.7981 224.384 52.1561 223.23L51.0225 222.912C50.7243 223.707 50.0332 224.105 49.1135 224.105C47.7363 224.105 46.7868 223.215 46.7321 221.58H52.2754V221.082C52.2754 218.239 50.585 217.264 48.9941 217.264C46.926 217.264 45.5538 218.895 45.5538 221.241C45.5538 223.588 46.9061 225.159 49.1135 225.159ZM46.7321 220.565C46.8116 219.377 47.6518 218.318 48.9941 218.318C50.2669 218.318 51.0822 219.273 51.0822 220.565H46.7321ZM56.9437 225.159C58.4153 225.159 58.9125 224.244 59.171 223.827H59.3102V225H60.4437V214.818H59.2704V218.577H59.171C58.9125 218.179 58.4551 217.264 56.9636 217.264C55.0346 217.264 53.7022 218.795 53.7022 221.202C53.7022 223.628 55.0346 225.159 56.9437 225.159ZM57.1028 224.105C55.6312 224.105 54.8755 222.812 54.8755 221.182C54.8755 219.571 55.6113 218.318 57.1028 218.318C58.5346 218.318 59.2903 219.472 59.2903 221.182C59.2903 222.912 58.5147 224.105 57.1028 224.105ZM68.5039 225H62.1403V226.094H68.5039V225ZM71.8113 225.179C73.1436 225.179 73.8397 224.463 74.0783 223.966H74.138V225H75.3113V219.969C75.3113 217.543 73.4618 217.264 72.4874 217.264C71.334 217.264 70.0215 217.662 69.4249 219.054L70.5385 219.452C70.7971 218.895 71.4086 218.298 72.5272 218.298C73.606 218.298 74.138 218.87 74.138 219.849V219.889C74.138 220.456 73.5613 220.406 72.1692 220.585C70.7523 220.769 69.2061 221.082 69.2061 222.832C69.2061 224.324 70.3596 225.179 71.8113 225.179ZM71.9902 224.125C71.0556 224.125 70.3794 223.707 70.3794 222.892C70.3794 221.997 71.1948 221.719 72.1096 221.599C72.6067 221.54 73.9391 221.401 74.138 221.162V222.236C74.138 223.19 73.3823 224.125 71.9902 224.125ZM80.7738 217.364H79.1431V215.534H77.9698V217.364H76.8164V218.358H77.9698V223.131C77.9698 224.463 79.0437 225.099 80.038 225.099C80.4755 225.099 80.7539 225.02 80.913 224.96L80.6744 223.906C80.5749 223.926 80.4158 223.966 80.1573 223.966C79.6403 223.966 79.1431 223.807 79.1431 222.812V218.358H80.7738V217.364Z" fill="black"/>
<rect width="280" height="40" transform="translate(1 241)" fill="white"/>
<path d="M1 241H281V277C281 279.209 279.209 281 277 281H4.99999C2.79085 281 1 279.209 1 277V241Z" fill="white" stroke="#828282"/>
<path d="M16.8864 261.878C16.8864 263.31 15.7926 263.966 14.9176 263.966C13.9432 263.966 13.2472 263.25 13.2472 262.136V257.364H12.0739V262.216C12.0739 264.165 13.108 265.099 14.5398 265.099C15.6932 265.099 16.4489 264.483 16.8068 263.707H16.8864V265H18.0597V257.364H16.8864V261.878ZM20.2086 267.864H21.3819V263.827H21.4814C21.7399 264.244 22.237 265.159 23.7086 265.159C25.6177 265.159 26.9501 263.628 26.9501 261.202C26.9501 258.795 25.6177 257.264 23.6887 257.264C22.1973 257.264 21.7399 258.179 21.4814 258.577H21.3422V257.364H20.2086V267.864ZM21.362 261.182C21.362 259.472 22.1177 258.318 23.5495 258.318C25.041 258.318 25.7768 259.571 25.7768 261.182C25.7768 262.812 25.0211 264.105 23.5495 264.105C22.1376 264.105 21.362 262.912 21.362 261.182ZM31.6234 265.159C33.095 265.159 33.5922 264.244 33.8507 263.827H33.9899V265H35.1234V254.818H33.9501V258.577H33.8507C33.5922 258.179 33.1348 257.264 31.6433 257.264C29.7143 257.264 28.3819 258.795 28.3819 261.202C28.3819 263.628 29.7143 265.159 31.6234 265.159ZM31.7825 264.105C30.3109 264.105 29.5552 262.812 29.5552 261.182C29.5552 259.571 30.291 258.318 31.7825 258.318C33.2143 258.318 33.97 259.472 33.97 261.182C33.97 262.912 33.1944 264.105 31.7825 264.105ZM39.6824 265.179C41.0147 265.179 41.7108 264.463 41.9494 263.966H42.0091V265H43.1824V259.969C43.1824 257.543 41.3329 257.264 40.3585 257.264C39.2051 257.264 37.8926 257.662 37.296 259.054L38.4096 259.452C38.6681 258.895 39.2797 258.298 40.3983 258.298C41.4771 258.298 42.0091 258.87 42.0091 259.849V259.889C42.0091 260.456 41.4324 260.406 40.0403 260.585C38.6234 260.769 37.0772 261.082 37.0772 262.832C37.0772 264.324 38.2306 265.179 39.6824 265.179ZM39.8613 264.125C38.9267 264.125 38.2505 263.707 38.2505 262.892C38.2505 261.997 39.0659 261.719 39.9806 261.599C40.4778 261.54 41.8102 261.401 42.0091 261.162V262.236C42.0091 263.19 41.2534 264.125 39.8613 264.125ZM48.6449 257.364H47.0142V255.534H45.8409V257.364H44.6875V258.358H45.8409V263.131C45.8409 264.463 46.9148 265.099 47.9091 265.099C48.3466 265.099 48.625 265.02 48.7841 264.96L48.5455 263.906C48.446 263.926 48.2869 263.966 48.0284 263.966C47.5114 263.966 47.0142 263.807 47.0142 262.812V258.358H48.6449V257.364ZM53.5295 265.159C55.0806 265.159 56.2141 264.384 56.5721 263.23L55.4386 262.912C55.1403 263.707 54.4492 264.105 53.5295 264.105C52.1523 264.105 51.2028 263.215 51.1481 261.58H56.6914V261.082C56.6914 258.239 55.0011 257.264 53.4102 257.264C51.342 257.264 49.9698 258.895 49.9698 261.241C49.9698 263.588 51.3221 265.159 53.5295 265.159ZM51.1481 260.565C51.2276 259.377 52.0678 258.318 53.4102 258.318C54.6829 258.318 55.4982 259.273 55.4982 260.565H51.1481ZM61.3597 265.159C62.8313 265.159 63.3285 264.244 63.587 263.827H63.7262V265H64.8597V254.818H63.6864V258.577H63.587C63.3285 258.179 62.8711 257.264 61.3796 257.264C59.4506 257.264 58.1183 258.795 58.1183 261.202C58.1183 263.628 59.4506 265.159 61.3597 265.159ZM61.5188 264.105C60.0472 264.105 59.2915 262.812 59.2915 261.182C59.2915 259.571 60.0273 258.318 61.5188 258.318C62.9506 258.318 63.7063 259.472 63.7063 261.182C63.7063 262.912 62.9308 264.105 61.5188 264.105ZM72.9199 265H66.5563V266.094H72.9199V265ZM76.2273 265.179C77.5597 265.179 78.2557 264.463 78.4943 263.966H78.554V265H79.7273V259.969C79.7273 257.543 77.8778 257.264 76.9034 257.264C75.75 257.264 74.4375 257.662 73.8409 259.054L74.9545 259.452C75.2131 258.895 75.8246 258.298 76.9432 258.298C78.022 258.298 78.554 258.87 78.554 259.849V259.889C78.554 260.456 77.9773 260.406 76.5852 260.585C75.1683 260.769 73.6222 261.082 73.6222 262.832C73.6222 264.324 74.7756 265.179 76.2273 265.179ZM76.4062 264.125C75.4716 264.125 74.7955 263.707 74.7955 262.892C74.7955 261.997 75.6108 261.719 76.5256 261.599C77.0227 261.54 78.3551 261.401 78.554 261.162V262.236C78.554 263.19 77.7983 264.125 76.4062 264.125ZM85.1898 257.364H83.5591V255.534H82.3858V257.364H81.2324V258.358H82.3858V263.131C82.3858 264.463 83.4597 265.099 84.454 265.099C84.8915 265.099 85.1699 265.02 85.329 264.96L85.0904 263.906C84.9909 263.926 84.8319 263.966 84.5733 263.966C84.0563 263.966 83.5591 263.807 83.5591 262.812V258.358H85.1898V257.364Z" fill="black"/>
</svg>
